# xmcd
#
# Track frame offsets: 
#        150
#        4440
#        29585
#        57640
#        80443
#        93648
#        119055
#        138833
#        156503
#        181305
#        196480
#        219285
#        246250
#
# Disc length: 3329 seconds
#
# Revision: 2
# Processed by: cddbd v1.5.2PL0 Copyright (c) Steve Scherf et al.
# Submitted via: ExactAudioCopy v1.0b3
#
DISCID=c20cff0d
DTITLE=Various Artist - Em Buon Anh Thuong
DYEAR=1993
DGENRE=
TTITLE0=Loi gioi thieu
TTITLE1=Thanh Truc - Toi thay toi ve
TTITLE2=Huong Lan, Thanh Phong - Em buon anh thuong
TTITLE3=Khanh Ly - Tiec
TTITLE4=Carol Kim - Cho
TTITLE5=Quoc Anh - Ba moi tinh
TTITLE6=Truc Mai - Toi se dua em ve
TTITLE7=Carol Kim - O ben nha
TTITLE8=Thanh Phong - Say
TTITLE9=Carol Kim - Noi buon con gai
TTITLE10=Truc Mai - La thu mien Trung
TTITLE11=Huong Lan, Thanh Phong - Duong ve que huong
TTITLE12=Loi ket
EXTD=Compilation CD:\nThanh Truc,\nHuong Lan and Thanh Phong\nKhanh Ly\n
EXTD=Carol Kim\nQuoc Anh\nTruc Mai
EXTT0=
EXTT1=
EXTT2=
EXTT3=
EXTT4=
EXTT5=
EXTT6=
EXTT7=
EXTT8=
EXTT9=
EXTT10=
EXTT11=
EXTT12=
PLAYORDER=
